<?xml version="1.0" encoding="utf-8"?>
<!-- Generator: Adobe Illustrator 21.0.0, SVG Export Plug-In . SVG Version: 6.00 Build 0)  -->
<svg version="1.1" id="Layer_1" xmlns="http://www.w3.org/2000/svg" xmlns:xlink="http://www.w3.org/1999/xlink" x="0px" y="0px"
	 viewBox="0 0 120.1 31.1" style="enable-background:new 0 0 120.1 31.1;" xml:space="preserve">
<style type="text/css">
	.st0{fill:#0AA5DB;}
	.st1{fill:none;stroke:#000000;stroke-width:0.25;stroke-miterlimit:10;}
	.st2{fill:#3EB65F;}
	.st3{fill:#061C32;}
	.st4{fill:none;stroke:#FFFFFF;stroke-width:4;stroke-linecap:round;stroke-linejoin:round;stroke-miterlimit:10;}
	.st5{fill:url(#SVGID_1_);}
	.st6{fill:#22499F;}
	.st7{fill:url(#SVGID_2_);}
	.st8{opacity:0.15;fill:#0AA5DB;}
	.st9{fill:#FFFFFF;}
	.st10{opacity:0.5;fill:none;stroke:#ED1C24;stroke-width:0.25;stroke-miterlimit:10;}
</style>
<g>
	<path class="st3" d="M56.5,5.3c0.2,0,0.4,0.1,0.6,0.2c0.2,0.1,0.3,0.4,0.3,0.8v3.6c0,0.4-0.1,0.7-0.4,0.8c-0.2,0.1-0.4,0.2-0.6,0.2
		h-0.9c-1.1,0-2,0.3-2.6,0.9c-0.6,0.6-0.9,1.6-0.9,2.9V23c0,0.2-0.1,0.4-0.3,0.5c-0.2,0.1-0.3,0.2-0.5,0.2h-3.6
		c-0.2,0-0.4-0.1-0.5-0.2c-0.1-0.1-0.2-0.3-0.2-0.5V6.6c0-0.2,0.1-0.4,0.2-0.6c0.1-0.2,0.3-0.2,0.5-0.2h3.5c0.2,0,0.4,0.1,0.5,0.2
		c0.2,0.1,0.2,0.3,0.2,0.5v1.4c0.5-0.8,1.1-1.6,1.8-2c0.7-0.4,1.5-0.6,2.3-0.6H56.5z"/>
	<path class="st3" d="M79.1,14.5c0-1.4,0.2-2.7,0.7-3.8c0.5-1.1,1.1-2.1,2-2.9c0.8-0.8,1.7-1.4,2.8-1.9c1.1-0.4,2.1-0.6,3.3-0.6
		c1.2,0,2.2,0.2,3.1,0.7c0.9,0.4,1.5,1,1.9,1.7V6.6c0-0.2,0.1-0.4,0.2-0.6c0.2-0.2,0.3-0.2,0.5-0.2h3.6c0.2,0,0.4,0.1,0.5,0.2
		c0.1,0.2,0.2,0.3,0.2,0.6V23c0,0.2-0.1,0.4-0.2,0.5c-0.1,0.1-0.3,0.2-0.5,0.2h-3.6c-0.2,0-0.4-0.1-0.5-0.2
		c-0.2-0.1-0.2-0.3-0.2-0.5v-1.6c-0.4,0.7-1.1,1.3-2,1.7c-0.9,0.4-1.9,0.7-3.1,0.7c-1.1,0-2.2-0.2-3.3-0.6s-2-1.1-2.8-1.9
		c-0.8-0.8-1.5-1.8-1.9-2.9C79.4,17.2,79.1,15.9,79.1,14.5z M84.4,14.5c0,0.6,0.1,1.2,0.3,1.7c0.2,0.6,0.5,1,0.9,1.4s0.8,0.7,1.4,1
		c0.5,0.2,1.1,0.4,1.7,0.4c0.6,0,1.2-0.1,1.7-0.4c0.5-0.2,1-0.6,1.3-1c0.4-0.4,0.7-0.9,0.9-1.4c0.2-0.6,0.3-1.1,0.3-1.7
		c0-0.6-0.1-1.2-0.3-1.7c-0.2-0.5-0.5-1-0.9-1.4c-0.4-0.4-0.8-0.7-1.3-1c-0.5-0.2-1.1-0.4-1.7-0.4c-0.6,0-1.2,0.1-1.7,0.4
		c-0.5,0.2-1,0.6-1.4,1s-0.7,0.9-0.9,1.4C84.5,13.3,84.4,13.9,84.4,14.5z"/>
	<path class="st3" d="M57.9,14.5c0-1.4,0.2-2.7,0.7-3.8c0.5-1.1,1.1-2.1,2-2.9c0.8-0.8,1.7-1.4,2.8-1.9c1.1-0.4,2.1-0.6,3.3-0.6
		c1.2,0,2.2,0.2,3.1,0.7c0.9,0.4,1.5,1,1.9,1.7V6.6c0-0.2,0.1-0.4,0.2-0.6c0.2-0.2,0.3-0.2,0.5-0.2h3.6c0.2,0,0.4,0.1,0.5,0.2
		c0.1,0.2,0.2,0.3,0.2,0.6V23c0,0.2-0.1,0.4-0.2,0.5c-0.1,0.1-0.3,0.2-0.5,0.2h-3.6c-0.2,0-0.4-0.1-0.5-0.2
		c-0.2-0.1-0.2-0.3-0.2-0.5v-1.6c-0.4,0.7-1.1,1.3-2,1.7c-0.9,0.4-1.9,0.7-3.1,0.7c-1.1,0-2.2-0.2-3.3-0.6s-2-1.1-2.8-1.9
		c-0.8-0.8-1.5-1.8-1.9-2.9C58.1,17.2,57.9,15.9,57.9,14.5z M63.1,14.5c0,0.6,0.1,1.2,0.3,1.7c0.2,0.6,0.5,1,0.9,1.4s0.8,0.7,1.4,1
		c0.5,0.2,1.1,0.4,1.7,0.4c0.6,0,1.2-0.1,1.7-0.4c0.5-0.2,1-0.6,1.3-1c0.4-0.4,0.7-0.9,0.9-1.4c0.2-0.6,0.3-1.1,0.3-1.7
		c0-0.6-0.1-1.2-0.3-1.7c-0.2-0.5-0.5-1-0.9-1.4c-0.4-0.4-0.8-0.7-1.3-1c-0.5-0.2-1.1-0.4-1.7-0.4c-0.6,0-1.2,0.1-1.7,0.4
		c-0.5,0.2-1,0.6-1.4,1s-0.7,0.9-0.9,1.4C63.3,13.3,63.1,13.9,63.1,14.5z"/>
	<path class="st3" d="M106.3,7.6c0.5-0.7,1.2-1.3,2.1-1.7s1.9-0.7,3.1-0.7c1.1,0,2.2,0.2,3.3,0.6c1,0.4,1.9,1,2.7,1.9
		c0.8,0.8,1.4,1.8,1.9,2.9c0.5,1.1,0.7,2.4,0.7,3.8c0,1.4-0.2,2.7-0.7,3.8c-0.5,1.1-1.1,2.1-1.9,2.9c-0.8,0.8-1.7,1.4-2.8,1.9
		c-1.1,0.4-2.2,0.6-3.3,0.6c-1,0-2-0.2-2.9-0.5c-1-0.3-1.7-0.9-2.2-1.6v8.7c0,0.2-0.1,0.4-0.2,0.5s-0.3,0.2-0.5,0.2h-3.7
		c-0.2,0-0.4-0.1-0.5-0.2c-0.1-0.1-0.2-0.3-0.2-0.5V6.6c0-0.2,0.1-0.4,0.2-0.6c0.1-0.2,0.3-0.2,0.5-0.2h3.6c0.2,0,0.4,0.1,0.5,0.2
		c0.1,0.2,0.2,0.3,0.2,0.6V7.6z M106.3,14.5c0,0.6,0.1,1.2,0.3,1.7c0.2,0.5,0.5,1,0.9,1.4c0.4,0.4,0.9,0.7,1.4,1
		c0.5,0.2,1.1,0.3,1.7,0.3c0.6,0,1.2-0.1,1.7-0.3c0.5-0.2,1-0.5,1.3-1c0.4-0.4,0.7-0.9,0.9-1.4c0.2-0.5,0.3-1.1,0.3-1.7
		s-0.1-1.2-0.3-1.7c-0.2-0.5-0.5-1-0.9-1.4c-0.4-0.4-0.8-0.7-1.3-1c-0.5-0.2-1.1-0.4-1.7-0.4c-0.6,0-1.2,0.1-1.7,0.4
		c-0.5,0.2-1,0.6-1.4,1c-0.4,0.4-0.7,0.9-0.9,1.4C106.4,13.3,106.3,13.9,106.3,14.5z"/>
	<path class="st2" d="M9,22.1l-7.9-7.9c-1.4-1.4-1.4-3.7,0-5.2L9,1.1c1.4-1.4,3.7-1.4,5.2,0L22.1,9c1.4,1.4,1.4,3.7,0,5.2l-7.9,7.9
		C12.8,23.6,10.4,23.6,9,22.1z"/>
	<path class="st0" d="M22.1,22.1l-7.9-7.9c-1.4-1.4-1.4-3.7,0-5.2l7.9-7.9c1.4-1.4,3.7-1.4,5.2,0L35.3,9c1.4,1.4,1.4,3.7,0,5.2
		l-7.9,7.9C25.9,23.6,23.6,23.6,22.1,22.1z"/>
	<path class="st3" d="M18.2,5l-4,4c-1.4,1.4-1.4,3.7,0,5.2l4,4l4-4c1.4-1.4,1.4-3.7,0-5.2L18.2,5z"/>
</g>
</svg>
