<svg width="18" height="10" viewBox="0 0 18 10" version="1.1" xmlns="http://www.w3.org/2000/svg" xmlns:xlink="http://www.w3.org/1999/xlink" xmlns:figma="http://www.figma.com/figma/ns">
<title>attachment-clip</title>
<desc>Created using Figma</desc>
<g id="Canvas" transform="translate(-2667 -5058)" figma:type="canvas">
<g id="attachment-clip" figma:type="frame">
<mask id="mask0_outline" mask-type="alpha">
<g id="Clip 2" figma:type="vector">
<use xlink:href="#path0_fill" transform="translate(2667.07 5058.22)"/>
</g>
</mask>
<g id="Fill 1" mask="url(#mask0_outline)" figma:type="vector">
<use xlink:href="#path1_fill" transform="translate(2667 5058.22)" fill="#7C86A2"/>
</g>
</g>
</g>
<defs>
<path id="path0_fill" fill-rule="evenodd" d="M 8.71719 0L 0 0L 0 9.53442L 17.4344 9.53442L 17.4344 0L 8.71719 0Z"/>
<path id="path1_fill" fill-rule="evenodd" d="M 4.81031 9.53442C 2.1875 9.53442 0 7.36775 0 4.7645C 0 2.16667 2.1875 0 4.81031 0L 14.0011 0C 15.9239 0 17.5 1.56108 17.5 3.46558C 17.5 5.37442 15.9239 6.93117 14.0011 6.93117L 6.5625 6.93117C 5.33641 6.93117 4.375 5.98 4.375 4.7645C 4.375 3.55442 5.33641 2.59783 6.5625 2.59783L 13.125 2.59783L 13.125 3.90217L 6.5625 3.90217C 6.0375 3.90217 5.68641 4.24883 5.68641 4.7645C 5.68641 5.28558 6.0375 5.63225 6.5625 5.63225L 14.0011 5.63225C 15.2272 5.63225 16.1886 4.68 16.1886 3.46558C 16.1886 2.25117 15.2272 1.29892 14.0011 1.29892L 4.81031 1.29892C 2.88859 1.29892 1.31141 2.86108 1.31141 4.7645C 1.31141 6.67333 2.88859 8.2355 4.81031 8.2355L 13.125 8.2355L 13.125 9.53442L 4.81031 9.53442Z"/>
</defs>
</svg>
