<svg width="20" height="16" viewBox="0 0 20 16" version="1.1" xmlns="http://www.w3.org/2000/svg" xmlns:xlink="http://www.w3.org/1999/xlink" xmlns:figma="http://www.figma.com/figma/ns">
<title>user</title>
<desc>Created using Figma</desc>
<g id="Canvas" transform="translate(-1945 -4614)" figma:type="canvas">
<g id="user" figma:type="frame">
<g id="Fill 1" figma:type="vector">
<use xlink:href="#path0_fill" transform="translate(1957.22 4617.99)" fill="#7C86A2"/>
<use xlink:href="#path1_stroke" transform="translate(1957.22 4617.99)" fill="#7C86A2"/>
</g>
<g id="Fill 3" figma:type="vector-operation">
<use xlink:href="#path2_fill" transform="translate(1946 4615.02)" fill="#7C86A2"/>
<use xlink:href="#path3_stroke" transform="translate(1946 4615.02)" fill="#7C86A2"/>
</g>
</g>
</g>
<defs>
<path id="path0_fill" fill-rule="evenodd" d="M 6.77793 8.1448C 5.74182 7.27867 4.62659 6.6577 4.17829 6.42375L 4.17829 4.93292C 4.41947 4.69897 4.55892 4.37706 4.55892 4.03215L 4.55892 2.1118C 4.55892 0.946808 3.62821 0 2.48284 0L 2.07589 0C 0.930706 0 0 0.946808 0 2.1118L 0 4.03215C 0 4.37706 0.139451 4.69897 0.38044 4.93292L 0.38044 5.26675C 0.38044 5.47746 0.546405 5.64611 0.753532 5.64611C 0.960706 5.64611 1.12644 5.47746 1.12644 5.26675L 1.12644 4.75268C 1.12644 4.6262 1.06243 4.50733 0.960706 4.43848C 0.825118 4.3464 0.745997 4.19706 0.745997 4.03215L 0.745997 2.1118C 0.745997 1.36828 1.34133 0.758903 2.07589 0.758903L 2.48284 0.758903C 3.21372 0.758903 3.81292 1.36449 3.81292 2.1118L 3.81292 4.03215C 3.81292 4.19706 3.7338 4.3464 3.59807 4.43848C 3.49262 4.50733 3.43229 4.6262 3.43229 4.75268L 3.43229 6.60792C 3.43229 6.78423 3.53402 6.9489 3.68854 7.02565C 3.9259 7.14447 5.16179 7.78058 6.3033 8.73113C 6.42768 8.83461 6.49922 8.99185 6.49922 9.15672L 6.49922 10.4752C 6.49922 10.6859 6.66499 10.8546 6.87212 10.8546C 7.07943 10.8546 7.24521 10.6859 7.24521 10.4752L 7.24521 9.15672C 7.24521 8.76184 7.07557 8.39388 6.77793 8.1448Z"/>
<path id="path1_stroke" d="M 6.77793 8.1448L 6.93837 7.95307L 6.93827 7.95299L 6.77793 8.1448ZM 4.17829 6.42375L 3.92829 6.42375L 3.92829 6.57528L 4.06263 6.64539L 4.17829 6.42375ZM 4.17829 4.93292L 4.00422 4.75347L 3.92829 4.82713L 3.92829 4.93292L 4.17829 4.93292ZM 0.38044 4.93292L 0.63044 4.93292L 0.63044 4.82719L 0.554576 4.75354L 0.38044 4.93292ZM 0.960706 4.43848L 0.82025 4.6453L 0.820584 4.64552L 0.960706 4.43848ZM 3.59807 4.43848L 3.73477 4.64785L 3.73843 4.64536L 3.59807 4.43848ZM 3.68854 7.02565L 3.80045 6.8021L 3.79975 6.80175L 3.68854 7.02565ZM 6.3033 8.73113L 6.14332 8.92324L 6.1434 8.9233L 6.3033 8.73113ZM 6.93827 7.95299C 5.88343 7.07264 4.74524 6.43765 4.29395 6.20212L 4.06263 6.64539C 4.50794 6.87775 5.60021 7.4847 6.61759 8.33661L 6.93827 7.95299ZM 4.42829 6.42375L 4.42829 4.93292L 3.92829 4.93292L 3.92829 6.42375L 4.42829 6.42375ZM 4.35236 5.11237C 4.64159 4.83181 4.80892 4.44536 4.80892 4.03215L 4.30892 4.03215C 4.30892 4.30876 4.19735 4.56614 4.00422 4.75347L 4.35236 5.11237ZM 4.80892 4.03215L 4.80892 2.1118L 4.30892 2.1118L 4.30892 4.03215L 4.80892 4.03215ZM 4.80892 2.1118C 4.80892 0.812783 3.77029 -0.25 2.48284 -0.25L 2.48284 0.25C 3.48613 0.25 4.30892 1.08083 4.30892 2.1118L 4.80892 2.1118ZM 2.48284 -0.25L 2.07589 -0.25L 2.07589 0.25L 2.48284 0.25L 2.48284 -0.25ZM 2.07589 -0.25C 0.78861 -0.25 -0.25 0.812797 -0.25 2.1118L 0.25 2.1118C 0.25 1.08082 1.0728 0.25 2.07589 0.25L 2.07589 -0.25ZM -0.25 2.1118L -0.25 4.03215L 0.25 4.03215L 0.25 2.1118L -0.25 2.1118ZM -0.25 4.03215C -0.25 4.44535 -0.0826791 4.83176 0.206303 5.1123L 0.554576 4.75354C 0.36158 4.56619 0.25 4.30877 0.25 4.03215L -0.25 4.03215ZM 0.13044 4.93292L 0.13044 5.26675L 0.63044 5.26675L 0.63044 4.93292L 0.13044 4.93292ZM 0.13044 5.26675C 0.13044 5.61164 0.404472 5.89611 0.753532 5.89611L 0.753532 5.39611C 0.688338 5.39611 0.63044 5.34328 0.63044 5.26675L 0.13044 5.26675ZM 0.753532 5.89611C 1.10282 5.89611 1.37644 5.61145 1.37644 5.26675L 0.876436 5.26675C 0.876436 5.34347 0.818589 5.39611 0.753532 5.39611L 0.753532 5.89611ZM 1.37644 5.26675L 1.37644 4.75268L 0.876436 4.75268L 0.876436 5.26675L 1.37644 5.26675ZM 1.37644 4.75268C 1.37644 4.54329 1.27132 4.34683 1.10083 4.23144L 0.820584 4.64552C 0.853543 4.66783 0.876436 4.7091 0.876436 4.75268L 1.37644 4.75268ZM 1.10116 4.23167C 1.03431 4.18627 0.995997 4.11449 0.995997 4.03215L 0.495997 4.03215C 0.495997 4.27963 0.615926 4.50653 0.82025 4.6453L 1.10116 4.23167ZM 0.995997 4.03215L 0.995997 2.1118L 0.495997 2.1118L 0.495997 4.03215L 0.995997 4.03215ZM 0.995997 2.1118C 0.995997 1.50184 1.48388 1.0089 2.07589 1.0089L 2.07589 0.508903C 1.19879 0.508903 0.495997 1.23472 0.495997 2.1118L 0.995997 2.1118ZM 2.07589 1.0089L 2.48284 1.0089L 2.48284 0.508903L 2.07589 0.508903L 2.07589 1.0089ZM 2.48284 1.0089C 3.07212 1.0089 3.56292 1.49901 3.56292 2.1118L 4.06292 2.1118C 4.06292 1.22998 3.35532 0.508903 2.48284 0.508903L 2.48284 1.0089ZM 3.56292 2.1118L 3.56292 4.03215L 4.06292 4.03215L 4.06292 2.1118L 3.56292 2.1118ZM 3.56292 4.03215C 3.56292 4.11447 3.52464 4.1862 3.45771 4.2316L 3.73843 4.64536C 3.94296 4.5066 4.06292 4.27965 4.06292 4.03215L 3.56292 4.03215ZM 3.46139 4.22915C 3.28055 4.34723 3.18229 4.54753 3.18229 4.75268L 3.68229 4.75268C 3.68229 4.70487 3.7047 4.66743 3.73474 4.64782L 3.46139 4.22915ZM 3.18229 4.75268L 3.18229 6.60792L 3.68229 6.60792L 3.68229 4.75268L 3.18229 4.75268ZM 3.18229 6.60792C 3.18229 6.87768 3.33647 7.12992 3.57733 7.24955L 3.79975 6.80175C 3.73157 6.76789 3.68229 6.69078 3.68229 6.60792L 3.18229 6.60792ZM 3.57663 7.24921C 3.81274 7.36739 5.02377 7.98903 6.14332 8.92324L 6.46327 8.53901C 5.29981 7.57213 4.03906 6.92155 3.80045 6.8021L 3.57663 7.24921ZM 6.1434 8.9233C 6.20839 8.97738 6.24922 9.06308 6.24922 9.15672L 6.74922 9.15672C 6.74922 8.92063 6.64696 8.69184 6.46319 8.53895L 6.1434 8.9233ZM 6.24922 9.15672L 6.24922 10.4752L 6.74922 10.4752L 6.74922 9.15672L 6.24922 9.15672ZM 6.24922 10.4752C 6.24922 10.8199 6.5229 11.1046 6.87212 11.1046L 6.87212 10.6046C 6.80709 10.6046 6.74922 10.5519 6.74922 10.4752L 6.24922 10.4752ZM 6.87212 11.1046C 7.22145 11.1046 7.49521 10.82 7.49521 10.4752L 6.99521 10.4752C 6.99521 10.5518 6.93742 10.6046 6.87212 10.6046L 6.87212 11.1046ZM 7.49521 10.4752L 7.49521 9.15672L 6.99521 9.15672L 6.99521 10.4752L 7.49521 10.4752ZM 7.49521 9.15672C 7.49521 8.6895 7.29405 8.25073 6.93837 7.95307L 6.61748 8.33652C 6.85709 8.53704 6.99521 8.83417 6.99521 9.15672L 7.49521 9.15672Z"/>
<path id="path2_fill" fill-rule="evenodd" d="M 6.0509 0L 6.57837 0C 7.99878 0 9.15527 1.17285 9.15527 2.61768L 9.15527 5.10938C 9.15527 5.54248 8.97449 5.94482 8.66199 6.22852L 8.66199 8.2749C 9.19299 8.54736 10.6814 9.35986 12.0677 10.5171C 12.4296 10.8164 12.6367 11.2646 12.6367 11.7397L 12.6367 13.4458C 12.6367 13.6562 12.4709 13.8252 12.2637 13.8252L 0.373047 13.8252C 0.165771 13.8252 0 13.6562 0 13.4458L 0 11.7397C 0 11.2607 0.207153 10.8164 0.561523 10.5171C 1.94788 9.35986 3.43616 8.55127 3.96729 8.2749L 3.96729 6.22852C 3.65479 5.94482 3.47388 5.53857 3.47388 5.10938L 3.47388 2.62158C 3.47388 1.17676 4.63049 0 6.0509 0ZM 11.593 11.1001C 10.1086 9.8584 8.49597 9.03027 8.18713 8.87695C 8.02136 8.79688 7.91577 8.62402 7.91956 8.43604L 7.91956 6.03711C 7.91956 5.91064 7.97998 5.7915 8.08533 5.72266C 8.29248 5.58447 8.41321 5.35498 8.41321 5.10547L 8.41321 2.61816C 8.41321 1.59082 7.5918 0.755371 6.58215 0.755371L 6.05457 0.755371C 5.04492 0.755371 4.22351 1.59082 4.22351 2.61816L 4.22351 5.10938C 4.22351 5.3584 4.3479 5.58838 4.55139 5.72656C 4.65308 5.79541 4.71704 5.91455 4.71704 6.04053L 4.71704 8.43994C 4.71704 8.62793 4.61169 8.79688 4.44568 8.88086C 4.13684 9.03418 2.52808 9.8623 1.03979 11.104C 0.855225 11.2573 0.745972 11.4912 0.745972 11.7402L 0.745972 13.0625L 11.8868 13.0625L 11.8868 11.7363C 11.8868 11.4912 11.7815 11.2573 11.593 11.1001Z"/>
<path id="path3_stroke" d="M 8.66199 6.22852L 8.49395 6.04341L 8.41199 6.11782L 8.41199 6.22852L 8.66199 6.22852ZM 8.66199 8.2749L 8.41199 8.2749L 8.41199 8.42762L 8.54786 8.49733L 8.66199 8.2749ZM 12.0677 10.5171L 11.9075 10.709L 11.9084 10.7097L 12.0677 10.5171ZM 0.561523 10.5171L 0.401317 10.3252L 0.400206 10.3261L 0.561523 10.5171ZM 3.96729 8.2749L 4.08268 8.49668L 4.21729 8.42664L 4.21729 8.2749L 3.96729 8.2749ZM 3.96729 6.22852L 4.21729 6.22852L 4.21729 6.11782L 4.13532 6.04341L 3.96729 6.22852ZM 8.18713 8.87695L 8.29831 8.65302L 8.29588 8.65184L 8.18713 8.87695ZM 11.593 11.1001L 11.4326 11.2919L 11.4329 11.2921L 11.593 11.1001ZM 7.91956 8.43604L 8.16956 8.44107L 8.16956 8.43604L 7.91956 8.43604ZM 8.08533 5.72266L 8.2221 5.93194L 8.22406 5.93063L 8.08533 5.72266ZM 4.55139 5.72656L 4.41095 5.93338L 4.41123 5.93358L 4.55139 5.72656ZM 4.44568 8.88086L 4.55685 9.10479L 4.55853 9.10394L 4.44568 8.88086ZM 1.03979 11.104L 1.19954 11.2963L 1.19995 11.296L 1.03979 11.104ZM 0.745972 13.0625L 0.495972 13.0625L 0.495972 13.3125L 0.745972 13.3125L 0.745972 13.0625ZM 11.8868 13.0625L 11.8868 13.3125L 12.1368 13.3125L 12.1368 13.0625L 11.8868 13.0625ZM 6.57837 -0.25L 6.0509 -0.25L 6.0509 0.25L 6.57837 0.25L 6.57837 -0.25ZM 9.40527 2.61768C 9.40527 1.03837 8.14042 -0.25 6.57837 -0.25L 6.57837 0.25C 7.85714 0.25 8.90527 1.30733 8.90527 2.61768L 9.40527 2.61768ZM 9.40527 5.10938L 9.40527 2.61768L 8.90527 2.61768L 8.90527 5.10938L 9.40527 5.10938ZM 8.83003 6.41362C 9.19467 6.08259 9.40527 5.61305 9.40527 5.10938L 8.90527 5.10938C 8.90527 5.47191 8.75431 5.80706 8.49395 6.04341L 8.83003 6.41362ZM 8.91199 8.2749L 8.91199 6.22852L 8.41199 6.22852L 8.41199 8.2749L 8.91199 8.2749ZM 12.228 10.3252C 10.8221 9.15319 9.30996 8.32641 8.77612 8.05247L 8.54786 8.49733C 9.07603 8.76831 10.5407 9.56653 11.9075 10.709L 12.228 10.3252ZM 12.8867 11.7397C 12.8867 11.192 12.6477 10.6724 12.2271 10.3245L 11.9084 10.7097C 12.2114 10.9604 12.3867 11.3373 12.3867 11.7397L 12.8867 11.7397ZM 12.8867 13.4458L 12.8867 11.7397L 12.3867 11.7397L 12.3867 13.4458L 12.8867 13.4458ZM 12.2637 14.0752C 12.6131 14.0752 12.8867 13.7902 12.8867 13.4458L 12.3867 13.4458C 12.3867 13.5223 12.3288 13.5752 12.2637 13.5752L 12.2637 14.0752ZM 0.373047 14.0752L 12.2637 14.0752L 12.2637 13.5752L 0.373047 13.5752L 0.373047 14.0752ZM -0.25 13.4458C -0.25 13.7902 0.0235899 14.0752 0.373047 14.0752L 0.373047 13.5752C 0.307953 13.5752 0.25 13.5223 0.25 13.4458L -0.25 13.4458ZM -0.25 11.7397L -0.25 13.4458L 0.25 13.4458L 0.25 11.7397L -0.25 11.7397ZM 0.400206 10.3261C -0.0111444 10.6735 -0.25 11.1881 -0.25 11.7397L 0.25 11.7397C 0.25 11.3334 0.425451 10.9593 0.722841 10.7081L 0.400206 10.3261ZM 3.85189 8.05313C 3.31878 8.33054 1.80741 9.15305 0.401319 10.3252L 0.721727 10.709C 2.08834 9.56667 3.55354 8.772 4.08268 8.49668L 3.85189 8.05313ZM 3.71729 6.22852L 3.71729 8.2749L 4.21729 8.2749L 4.21729 6.22852L 3.71729 6.22852ZM 3.22388 5.10938C 3.22388 5.60885 3.43439 6.08239 3.79925 6.41362L 4.13532 6.04341C 3.87518 5.80726 3.72388 5.4683 3.72388 5.10938L 3.22388 5.10938ZM 3.22388 2.62158L 3.22388 5.10938L 3.72388 5.10938L 3.72388 2.62158L 3.22388 2.62158ZM 6.0509 -0.25C 4.48839 -0.25 3.22388 1.04275 3.22388 2.62158L 3.72388 2.62158C 3.72388 1.31076 4.7726 0.25 6.0509 0.25L 6.0509 -0.25ZM 8.07597 9.10088C 8.38329 9.25344 9.97049 10.0668 11.4326 11.2919L 11.7534 10.9083C 10.2468 9.65004 8.60866 8.80711 8.2983 8.65303L 8.07597 9.10088ZM 7.66961 8.431C 7.66389 8.7151 7.82317 8.97878 8.07839 9.10206L 8.29588 8.65184C 8.21956 8.61497 8.16766 8.53294 8.16951 8.44107L 7.66961 8.431ZM 7.66956 6.03711L 7.66956 8.43604L 8.16956 8.43604L 8.16956 6.03711L 7.66956 6.03711ZM 7.94856 5.51338C 7.76783 5.6315 7.66956 5.83206 7.66956 6.03711L 8.16956 6.03711C 8.16956 5.98923 8.19213 5.95151 8.22209 5.93193L 7.94856 5.51338ZM 8.16321 5.10547C 8.16321 5.27294 8.08297 5.42371 7.9466 5.51468L 8.22406 5.93063C 8.50199 5.74523 8.66321 5.43702 8.66321 5.10547L 8.16321 5.10547ZM 8.16321 2.61816L 8.16321 5.10547L 8.66321 5.10547L 8.66321 2.61816L 8.16321 2.61816ZM 6.58215 1.00537C 7.44971 1.00537 8.16321 1.72484 8.16321 2.61816L 8.66321 2.61816C 8.66321 1.4568 7.73388 0.505371 6.58215 0.505371L 6.58215 1.00537ZM 6.05457 1.00537L 6.58215 1.00537L 6.58215 0.505371L 6.05457 0.505371L 6.05457 1.00537ZM 4.47351 2.61816C 4.47351 1.72484 5.18701 1.00537 6.05457 1.00537L 6.05457 0.505371C 4.90283 0.505371 3.97351 1.4568 3.97351 2.61816L 4.47351 2.61816ZM 4.47351 5.10938L 4.47351 2.61816L 3.97351 2.61816L 3.97351 5.10938L 4.47351 5.10938ZM 4.69184 5.51974C 4.55586 5.4274 4.47351 5.27435 4.47351 5.10938L 3.97351 5.10938C 3.97351 5.44245 4.13994 5.74935 4.41095 5.93338L 4.69184 5.51974ZM 4.96704 6.04053C 4.96704 5.83172 4.86203 5.63497 4.69155 5.51955L 4.41123 5.93358C 4.44412 5.95585 4.46704 5.99738 4.46704 6.04053L 4.96704 6.04053ZM 4.96704 8.43994L 4.96704 6.04053L 4.46704 6.04053L 4.46704 8.43994L 4.96704 8.43994ZM 4.55853 9.10394C 4.80793 8.97777 4.96704 8.72302 4.96704 8.43994L 4.46704 8.43994C 4.46704 8.53284 4.41546 8.61598 4.33283 8.65778L 4.55853 9.10394ZM 1.19995 11.296C 2.6662 10.0707 4.24964 9.25729 4.55684 9.10478L 4.33451 8.65693C 4.02404 8.81107 2.38995 9.65392 0.879637 10.912L 1.19995 11.296ZM 0.995972 11.7402C 0.995972 11.5637 1.07356 11.401 1.19954 11.2963L 0.880049 10.9117C 0.636893 11.1137 0.495972 11.4187 0.495972 11.7402L 0.995972 11.7402ZM 0.995972 13.0625L 0.995972 11.7402L 0.495972 11.7402L 0.495972 13.0625L 0.995972 13.0625ZM 11.8868 12.8125L 0.745972 12.8125L 0.745972 13.3125L 11.8868 13.3125L 11.8868 12.8125ZM 11.6368 11.7363L 11.6368 13.0625L 12.1368 13.0625L 12.1368 11.7363L 11.6368 11.7363ZM 11.4329 11.2921C 11.5623 11.4 11.6368 11.5625 11.6368 11.7363L 12.1368 11.7363C 12.1368 11.4199 12.0007 11.1146 11.7532 10.9081L 11.4329 11.2921Z"/>
</defs>
</svg>
