<svg width="17" height="17" viewBox="0 0 17 17" version="1.1" xmlns="http://www.w3.org/2000/svg" xmlns:xlink="http://www.w3.org/1999/xlink" xmlns:figma="http://www.figma.com/figma/ns">
<title>Icon</title>
<desc>Created using Figma</desc>
<g id="Canvas" transform="translate(-1945 -5572)" figma:type="canvas">
<g id="Icon" figma:type="frame">
<g id="Oval 2" figma:type="vector">
<use xlink:href="#path0_stroke" transform="translate(1952.75 5579.75)" fill="#7C86A2"/>
</g>
<g id="Line" figma:type="vector">
<use xlink:href="#path1_stroke" transform="translate(1955.75 5581.25)" fill="#7C86A2"/>
</g>
<g id="Line" figma:type="vector">
<use xlink:href="#path2_stroke" transform="translate(1954.25 5582.75)" fill="#7C86A2"/>
</g>
<g id="Path 2" figma:type="vector">
<use xlink:href="#path3_stroke" transform="translate(1946.43 5573.34)" fill="#7C86A2"/>
</g>
<g id="Line" figma:type="vector">
<use xlink:href="#path4_stroke" transform="translate(1948.25 5576)" fill="#7C86A2"/>
</g>
<g id="Line Copy 3" figma:type="vector">
<use xlink:href="#path5_stroke" transform="translate(1948.62 5578.62)" fill="#7C86A2"/>
</g>
<g id="Line Copy 4" figma:type="vector">
<use xlink:href="#path6_stroke" transform="translate(1948.62 5580.86)" fill="#7C86A2"/>
</g>
<g id="Line Copy 5" figma:type="vector">
<use xlink:href="#path7_stroke" transform="translate(1948.25 5582.75)" fill="#7C86A2"/>
</g>
<g id="Path 3" figma:type="vector">
<use xlink:href="#path8_stroke" transform="translate(1953.15 5573.36)" fill="#7C86A2"/>
</g>
</g>
</g>
<defs>
<path id="path0_stroke" d="M 4.125 8.75C 6.67932 8.75 8.75 6.67932 8.75 4.125L 7.75 4.125C 7.75 6.12703 6.12703 7.75 4.125 7.75L 4.125 8.75ZM 8.75 4.125C 8.75 1.57068 6.67932 -0.5 4.125 -0.5L 4.125 0.5C 6.12703 0.5 7.75 2.12297 7.75 4.125L 8.75 4.125ZM 4.125 -0.5C 1.57068 -0.5 -0.5 1.57068 -0.5 4.125L 0.5 4.125C 0.5 2.12297 2.12297 0.5 4.125 0.5L 4.125 -0.5ZM -0.5 4.125C -0.5 6.67932 1.57068 8.75 4.125 8.75L 4.125 7.75C 2.12297 7.75 0.5 6.12703 0.5 4.125L -0.5 4.125Z"/>
<path id="path1_stroke" d="M 1.625 0.375C 1.625 0.0988576 1.40114 -0.125 1.125 -0.125C 0.848858 -0.125 0.625 0.0988576 0.625 0.375L 1.625 0.375ZM 0.625 4.875C 0.625 5.15114 0.848858 5.375 1.125 5.375C 1.40114 5.375 1.625 5.15114 1.625 4.875L 0.625 4.875ZM 0.625 0.375L 0.625 4.875L 1.625 4.875L 1.625 0.375L 0.625 0.375Z"/>
<path id="path2_stroke" d="M 0.375 0.625C 0.0988576 0.625 -0.125 0.848858 -0.125 1.125C -0.125 1.40114 0.0988576 1.625 0.375 1.625L 0.375 0.625ZM 4.875 1.625C 5.15114 1.625 5.375 1.40114 5.375 1.125C 5.375 0.848858 5.15114 0.625 4.875 0.625L 4.875 1.625ZM 0.375 1.625L 4.875 1.625L 4.875 0.625L 0.375 0.625L 0.375 1.625Z"/>
<path id="path3_stroke" d="M 6.69192 0.515718C 6.96807 0.516366 7.19245 0.293035 7.1931 0.0168935C 7.19375 -0.259248 6.97042 -0.483631 6.69427 -0.484279L 6.69192 0.515718ZM 0 0L 0.00117429 -0.499999C -0.13177 -0.500311 -0.259366 -0.447665 -0.35341 -0.353696C -0.447455 -0.259728 -0.500204 -0.132175 -0.499999 0.000769775L 0 0ZM 0.0219729 14.2723L -0.478027 14.273C -0.477604 14.5475 -0.255953 14.7704 0.0185459 14.7723L 0.0219729 14.2723ZM 5.29131 14.8084C 5.56745 14.8103 5.79284 14.588 5.79473 14.3118C 5.79662 14.0357 5.5743 13.8103 5.29817 13.8084L 5.29131 14.8084ZM 6.69427 -0.484279L 0.00117429 -0.499999L -0.00117429 0.499999L 6.69192 0.515718L 6.69427 -0.484279ZM -0.499999 0.000769775L -0.478027 14.273L 0.521972 14.2715L 0.499999 -0.000769775L -0.499999 0.000769775ZM 0.0185459 14.7723L 5.29131 14.8084L 5.29817 13.8084L 0.0253999 13.7723L 0.0185459 14.7723Z"/>
<path id="path4_stroke" d="M 0.375 0.625C 0.0988576 0.625 -0.125 0.848858 -0.125 1.125C -0.125 1.40114 0.0988576 1.625 0.375 1.625L 0.375 0.625ZM 2.625 1.625C 2.90114 1.625 3.125 1.40114 3.125 1.125C 3.125 0.848858 2.90114 0.625 2.625 0.625L 2.625 1.625ZM 0.375 1.625L 2.625 1.625L 2.625 0.625L 0.375 0.625L 0.375 1.625Z"/>
<path id="path5_stroke" d="M -0.000294984 0.252436C -0.276437 0.252599 -0.500163 0.476588 -0.5 0.752731C -0.499837 1.02887 -0.275847 1.2526 0.000294984 1.25244L -0.000294984 0.252436ZM 4.1287 1.25C 4.40484 1.24984 4.62857 1.02585 4.6284 0.749705C 4.62824 0.473563 4.40425 0.249837 4.12811 0.25L 4.1287 1.25ZM 0.000294984 1.25244L 4.1287 1.25L 4.12811 0.25L -0.000294984 0.252436L 0.000294984 1.25244Z"/>
<path id="path6_stroke" d="M -0.00208009 0.260936C -0.27822 0.262084 -0.501144 0.486871 -0.499996 0.763011C -0.498847 1.03915 -0.27406 1.26208 0.00208009 1.26093L -0.00208009 0.260936ZM 2.62967 1.25C 2.90581 1.24885 3.12873 1.02406 3.12758 0.74792C 3.12643 0.47178 2.90165 0.248856 2.62551 0.250004L 2.62967 1.25ZM 0.00208009 1.26093L 2.62967 1.25L 2.62551 0.250004L -0.00208009 0.260936L 0.00208009 1.26093Z"/>
<path id="path7_stroke" d="M 0.375 0.625C 0.0988576 0.625 -0.125 0.848858 -0.125 1.125C -0.125 1.40114 0.0988576 1.625 0.375 1.625L 0.375 0.625ZM 1.875 1.625C 2.15114 1.625 2.375 1.40114 2.375 1.125C 2.375 0.848858 2.15114 0.625 1.875 0.625L 1.875 1.625ZM 0.375 1.625L 1.875 1.625L 1.875 0.625L 0.375 0.625L 0.375 1.625Z"/>
<path id="path8_stroke" d="M 0.018366 3.3539L -0.481627 3.35664C -0.48012 3.6317 -0.256708 3.8539 0.018366 3.8539L 0.018366 3.3539ZM 0 0L 0.334012 -0.37207C 0.186794 -0.50423 -0.0245053 -0.537158 -0.204957 -0.456062C -0.385409 -0.374966 -0.501076 -0.195096 -0.499992 0.00273797L 0 0ZM 3.73604 3.3539L 3.73604 3.8539C 3.94318 3.8539 4.12887 3.72617 4.20296 3.53273C 4.27705 3.3393 4.22419 3.1202 4.07005 2.98183L 3.73604 3.3539ZM 3.07658 2.8539L 0.018366 2.8539L 0.018366 3.8539L 3.07658 3.8539L 3.07658 2.8539ZM 0.518359 3.35116L 0.499992 -0.00273797L -0.499992 0.00273797L -0.481627 3.35664L 0.518359 3.35116ZM -0.334012 0.37207L 3.40203 3.72597L 4.07005 2.98183L 0.334012 -0.37207L -0.334012 0.37207ZM 3.73604 2.8539L 3.07658 2.8539L 3.07658 3.8539L 3.73604 3.8539L 3.73604 2.8539Z"/>
</defs>
</svg>

