<svg width="17" height="17" viewBox="0 0 17 17" version="1.1" xmlns="http://www.w3.org/2000/svg" xmlns:xlink="http://www.w3.org/1999/xlink" xmlns:figma="http://www.figma.com/figma/ns">
<title>icon</title>
<desc>Created using Figma</desc>
<g id="Canvas" transform="translate(-1945 -5733)" figma:type="canvas">
<g id="icon" figma:type="frame">
<g id="Fill 1" figma:type="vector-operation">
<use xlink:href="#path0_stroke" transform="translate(1946 5734)" fill="#7C86A2"/>
</g>
</g>
</g>
<defs>
<path id="path0_stroke" d="M 1.62158 8.66797L 2.11212 8.57116L 2.03255 8.16797L 1.62158 8.16797L 1.62158 8.66797ZM 1.62158 6.32666L 1.62158 6.82666L 2.032 6.82666L 2.11199 6.42411L 1.62158 6.32666ZM 2.51294 4.17334L 2.92782 4.4524L 3.15762 4.11076L 2.8664 3.81969L 2.51294 4.17334ZM 1.81531 3.47607L 1.46167 3.82954L 1.46185 3.82972L 1.81531 3.47607ZM 1.81531 2.57373L 1.46178 2.22015L 1.46167 2.22026L 1.81531 2.57373ZM 2.57373 1.81543L 2.22026 1.46179L 2.22021 1.46185L 2.57373 1.81543ZM 3.47583 1.81543L 3.83087 1.46337L 3.82947 1.46196L 3.47583 1.81543ZM 4.16772 2.51318L 3.81268 2.86524L 4.10195 3.15696L 4.44423 2.92977L 4.16772 2.51318ZM 6.32092 1.62158L 6.41784 2.1121L 6.82092 2.03246L 6.82092 1.62158L 6.32092 1.62158ZM 8.66797 1.62158L 8.16797 1.62158L 8.16797 2.03189L 8.57038 2.11197L 8.66797 1.62158ZM 10.8209 2.51318L 10.5417 2.92794L 10.8833 3.15797L 11.1745 2.86668L 10.8209 2.51318ZM 11.5184 1.81543L 11.872 2.16892L 11.8721 2.1689L 11.5184 1.81543ZM 12.4207 1.81543L 12.0672 2.16907L 12.0684 2.17023L 12.4207 1.81543ZM 13.1843 2.57373L 13.5377 2.22L 13.5366 2.21893L 13.1843 2.57373ZM 13.1843 3.47607L 12.8309 3.12235L 12.8308 3.12252L 13.1843 3.47607ZM 12.4871 4.17334L 12.1335 3.81979L 11.8442 4.10906L 12.0705 4.44989L 12.4871 4.17334ZM 13.3782 6.32666L 12.8876 6.42333L 12.9671 6.82666L 13.3782 6.82666L 13.3782 6.32666ZM 13.3782 8.66797L 13.3782 8.16797L 12.9677 8.16797L 12.8877 8.5706L 13.3782 8.66797ZM 12.4871 10.8208L 12.0721 10.5419L 11.8426 10.8832L 12.1334 11.1742L 12.4871 10.8208ZM 13.1843 11.5186L 12.8306 11.872L 12.8309 11.8723L 13.1843 11.5186ZM 13.1843 12.4209L 13.5379 12.7745L 13.5381 12.7743L 13.1843 12.4209ZM 12.426 13.1792L 12.7793 13.533L 12.7796 13.5328L 12.426 13.1792ZM 11.5238 13.1792L 11.1701 13.5326L 11.1708 13.5333L 11.5238 13.1792ZM 10.8265 12.4814L 11.1802 12.128L 10.8909 11.8385L 10.55 12.0649L 10.8265 12.4814ZM 8.67334 13.3726L 8.57672 12.882L 8.17334 12.9614L 8.17334 13.3726L 8.67334 13.3726ZM 6.32642 13.3726L 6.82642 13.3726L 6.82642 12.962L 6.42371 12.8821L 6.32642 13.3726ZM 4.17346 12.4814L 4.4527 12.0667L 4.11107 11.8367L 3.81988 12.1279L 4.17346 12.4814ZM 3.47583 13.1792L 3.82912 13.533L 3.82941 13.5327L 3.47583 13.1792ZM 2.57373 13.1792L 2.22021 13.5328L 2.22061 13.5332L 2.57373 13.1792ZM 1.81531 12.4209L 1.46132 12.774L 1.46178 12.7745L 1.81531 12.4209ZM 1.81531 11.5186L 1.46172 11.165L 1.46167 11.1651L 1.81531 11.5186ZM 2.51294 10.8208L 2.86652 11.1743L 3.15575 10.885L 2.9295 10.5443L 2.51294 10.8208ZM 0.636475 9.16797L 1.62158 9.16797L 1.62158 8.16797L 0.636475 8.16797L 0.636475 9.16797ZM -0.5 8.03711C -0.5 8.66471 0.00879383 9.16797 0.636475 9.16797L 0.636475 8.16797C 0.555415 8.16797 0.5 8.10678 0.5 8.03711L -0.5 8.03711ZM -0.5 6.96338L -0.5 8.03711L 0.5 8.03711L 0.5 6.96338L -0.5 6.96338ZM 0.636475 5.82666C 0.00303155 5.82666 -0.5 6.34105 -0.5 6.96338L 0.5 6.96338C 0.5 6.88746 0.561177 6.82666 0.636475 6.82666L 0.636475 5.82666ZM 1.62158 5.82666L 0.636475 5.82666L 0.636475 6.82666L 1.62158 6.82666L 1.62158 5.82666ZM 2.09806 3.89428C 1.6407 4.57861 1.2984 5.40031 1.13117 6.22921L 2.11199 6.42411C 2.25507 5.69148 2.52141 5.05225 2.92782 4.4524L 2.09806 3.89428ZM 1.46185 3.82972L 2.15948 4.52699L 2.8664 3.81969L 2.16877 3.12243L 1.46185 3.82972ZM 1.46167 2.22026C 1.01762 2.66453 1.01762 3.38528 1.46167 3.82954L 2.16895 3.12261C 2.11519 3.06883 2.11519 2.98098 2.16895 2.9272L 1.46167 2.22026ZM 2.22021 1.46185L 1.46178 2.22015L 2.16883 2.92731L 2.92726 2.16901L 2.22021 1.46185ZM 3.82947 1.46196C 3.38519 1.01747 2.66456 1.01772 2.22026 1.46179L 2.9272 2.16907C 2.9812 2.1151 3.06867 2.11535 3.12219 2.1689L 3.82947 1.46196ZM 4.52277 2.16112L 3.83087 1.46337L 3.12079 2.16749L 3.81268 2.86524L 4.52277 2.16112ZM 6.22401 1.13106C 5.38748 1.29912 4.57241 1.64694 3.89122 2.0966L 4.44423 2.92977C 5.04747 2.52689 5.68259 2.25459 6.41784 2.1121L 6.22401 1.13106ZM 5.82092 0.63623L 5.82092 1.62158L 6.82092 1.62158L 6.82092 0.63623L 5.82092 0.63623ZM 6.9574 -0.5C 6.32439 -0.5 5.82092 0.0140823 5.82092 0.63623L 6.82092 0.63623C 6.82092 0.561113 6.88191 0.5 6.9574 0.5L 6.9574 -0.5ZM 8.03125 -0.5L 6.9574 -0.5L 6.9574 0.5L 8.03125 0.5L 8.03125 -0.5ZM 9.16797 0.63623C 9.16797 0.00296708 8.65314 -0.5 8.03125 -0.5L 8.03125 0.5C 8.10711 0.5 8.16797 0.561486 8.16797 0.63623L 9.16797 0.63623ZM 9.16797 1.62158L 9.16797 0.63623L 8.16797 0.63623L 8.16797 1.62158L 9.16797 1.62158ZM 11.1002 2.09842C 10.4159 1.64071 9.59382 1.29852 8.76555 1.1312L 8.57038 2.11197C 9.30267 2.25519 9.94223 2.5214 10.5417 2.92794L 11.1002 2.09842ZM 11.1648 1.46194L 10.4673 2.15969L 11.1745 2.86668L 11.872 2.16892L 11.1648 1.46194ZM 12.7741 1.46179C 12.3298 1.01772 11.6091 1.01747 11.1648 1.46196L 11.8721 2.1689C 11.9256 2.11535 12.0132 2.1151 12.0672 2.16907L 12.7741 1.46179ZM 13.5366 2.21893L 12.773 1.46063L 12.0684 2.17023L 12.832 2.92853L 13.5366 2.21893ZM 13.5377 3.8298C 13.9825 3.38548 13.9825 2.66433 13.5377 2.22L 12.8309 2.92746C 12.8847 2.98118 12.8847 3.06863 12.8309 3.12235L 13.5377 3.8298ZM 12.8406 4.52689L 13.5379 3.82963L 12.8308 3.12252L 12.1335 3.81979L 12.8406 4.52689ZM 13.8687 6.22999C 13.701 5.39313 13.3533 4.57791 12.9036 3.89679L 12.0705 4.44989C 12.4733 5.05295 12.7455 5.68793 12.8876 6.42333L 13.8687 6.22999ZM 14.3633 5.82666L 13.3782 5.82666L 13.3782 6.82666L 14.3633 6.82666L 14.3633 5.82666ZM 15.5 6.96338C 15.5 6.32988 14.9854 5.82666 14.3633 5.82666L 14.3633 6.82666C 14.4389 6.82666 14.5 6.8879 14.5 6.96338L 15.5 6.96338ZM 15.5 8.03125L 15.5 6.96338L 14.5 6.96338L 14.5 8.03125L 15.5 8.03125ZM 14.3633 9.16797C 14.9965 9.16797 15.5 8.65315 15.5 8.03125L 14.5 8.03125C 14.5 8.10662 14.4385 8.16797 14.3633 8.16797L 14.3633 9.16797ZM 13.3782 9.16797L 14.3633 9.16797L 14.3633 8.16797L 13.3782 8.16797L 13.3782 9.16797ZM 12.902 11.0998C 13.3591 10.4155 13.7016 9.59385 13.8686 8.76533L 12.8877 8.5706C 12.7449 9.30263 12.4783 9.94188 12.0721 10.5419L 12.902 11.0998ZM 13.538 11.1651L 12.8407 10.4674L 12.1334 11.1742L 12.8306 11.872L 13.538 11.1651ZM 13.5381 12.7743C 13.9822 12.3297 13.9827 11.6093 13.5377 11.1648L 12.8309 11.8723C 12.8845 11.9258 12.885 12.013 12.8306 12.0675L 13.5381 12.7743ZM 12.7796 13.5328L 13.5379 12.7745L 12.8308 12.0673L 12.0725 12.8256L 12.7796 13.5328ZM 11.1708 13.5333C 11.615 13.9762 12.3351 13.9766 12.7793 13.533L 12.0727 12.8254C 12.0192 12.8789 11.9311 12.8792 11.8768 12.8251L 11.1708 13.5333ZM 10.4729 12.8349L 11.1701 13.5326L 11.8775 12.8258L 11.1802 12.128L 10.4729 12.8349ZM 8.76996 13.8631C 9.60663 13.6956 10.422 13.3477 11.1031 12.898L 10.55 12.0649C 9.94691 12.4677 9.31183 12.74 8.57672 12.882L 8.76996 13.8631ZM 9.17334 14.3579L 9.17334 13.3726L 8.17334 13.3726L 8.17334 14.3579L 9.17334 14.3579ZM 8.03687 15.4946C 8.67056 15.4946 9.17334 14.9795 9.17334 14.3579L 8.17334 14.3579C 8.17334 14.4336 8.11191 14.4946 8.03687 14.4946L 8.03687 15.4946ZM 6.96313 15.4946L 8.03687 15.4946L 8.03687 14.4946L 6.96313 14.4946L 6.96313 15.4946ZM 5.82642 14.3579C 5.82642 14.9914 6.34081 15.4946 6.96313 15.4946L 6.96313 14.4946C 6.88746 14.4946 6.82642 14.4335 6.82642 14.3579L 5.82642 14.3579ZM 5.82642 13.3726L 5.82642 14.3579L 6.82642 14.3579L 6.82642 13.3726L 5.82642 13.3726ZM 3.89422 12.8962C 4.57846 13.3539 5.40071 13.6962 6.22913 13.863L 6.42371 12.8821C 5.69157 12.7394 5.05216 12.4732 4.4527 12.0667L 3.89422 12.8962ZM 3.82941 13.5327L 4.52705 12.835L 3.81988 12.1279L 3.12225 12.8257L 3.82941 13.5327ZM 2.22061 13.5332C 2.66482 13.9763 3.38492 13.9766 3.82912 13.533L 3.12254 12.8254C 3.06893 12.8789 2.98093 12.8792 2.92685 12.8252L 2.22061 13.5332ZM 1.46178 12.7745L 2.22021 13.5328L 2.92726 12.8256L 2.16883 12.0673L 1.46178 12.7745ZM 1.46167 11.1651C 1.01743 11.6095 1.01793 12.3295 1.46132 12.774L 2.16929 12.0678C 2.11489 12.0132 2.11538 11.9256 2.16895 11.872L 1.46167 11.1651ZM 2.15936 10.4673L 1.46172 11.165L 2.16889 11.8721L 2.86652 11.1743L 2.15936 10.4673ZM 1.13104 8.76478C 1.29899 9.60163 1.64672 10.4163 2.09638 11.0973L 2.9295 10.5443C 2.52662 9.94114 2.25447 9.30657 2.11212 8.57116L 1.13104 8.76478ZM 7.49451 5.28223C 8.71831 5.28223 9.71204 6.27608 9.71204 7.5L 10.712 7.5C 10.712 5.72392 9.27071 4.28223 7.49451 4.28223L 7.49451 5.28223ZM 5.27673 7.5C 5.27673 6.27614 6.27065 5.28223 7.49451 5.28223L 7.49451 4.28223C 5.71836 4.28223 4.27673 5.72386 4.27673 7.5L 5.27673 7.5ZM 7.49451 9.71777C 6.27065 9.71777 5.27673 8.72386 5.27673 7.5L 4.27673 7.5C 4.27673 9.27614 5.71836 10.7178 7.49451 10.7178L 7.49451 9.71777ZM 9.71204 7.5C 9.71204 8.72392 8.71831 9.71777 7.49451 9.71777L 7.49451 10.7178C 9.27071 10.7178 10.712 9.27608 10.712 7.5L 9.71204 7.5Z"/>
</defs>
</svg>
