<svg width="15" height="13" viewBox="0 0 15 13" version="1.1" xmlns="http://www.w3.org/2000/svg" xmlns:xlink="http://www.w3.org/1999/xlink" xmlns:figma="http://www.figma.com/figma/ns">
<title>sign-out-option</title>
<desc>Created using Figma</desc>
<g id="Canvas" transform="translate(-1946 -6106)" figma:type="canvas">
<g id="sign-out-option" figma:type="frame">
<g id="Fill 1" figma:type="vector">
<use xlink:href="#path0_fill" transform="translate(1946 6106.09)" fill="#7C86A2"/>
</g>
<g id="Fill 2" figma:type="vector">
<use xlink:href="#path1_fill" transform="translate(1949.64 6106.41)" fill="#7C86A2"/>
</g>
</g>
</g>
<defs>
<path id="path0_fill" fill-rule="evenodd" d="M 6.075 11.8028C 6.05621 11.7496 6.04937 11.7041 6.05563 11.6677C 6.06248 11.6313 6.04034 11.6014 5.98966 11.5781C 5.9384 11.5549 5.91335 11.5364 5.91335 11.5232C 5.91335 11.51 5.87694 11.4998 5.80413 11.4932C 5.73131 11.4866 5.6949 11.4837 5.6949 11.4837L 2.7335 11.4837C 2.31583 11.4837 1.95859 11.3271 1.66107 11.0148C 1.36354 10.7024 1.21515 10.327 1.21515 9.88857L 1.21515 2.87071C 1.21515 2.43207 1.36354 2.05691 1.66107 1.74445C 1.95859 1.43199 2.31583 1.27553 2.7335 1.27553L 5.77121 1.27553C 5.85306 1.27553 5.91801 1.25458 5.96578 1.21099C 6.01296 1.16801 6.04485 1.10286 6.06015 1.01675C 6.07617 0.930188 6.08578 0.851882 6.08913 0.7826C 6.09204 0.712706 6.09087 0.624918 6.08403 0.518624C 6.07777 0.412176 6.075 0.345341 6.075 0.319035C 6.075 0.232471 6.04485 0.157682 5.98456 0.0943647C 5.92427 0.0316588 5.85306 0 5.77121 0L 2.7335 0C 1.98087 0 1.33689 0.2808 0.802136 0.8424C 0.267379 1.404 0 2.08031 0 2.87071L 0 9.88857C 0 10.6796 0.267379 11.3553 0.802136 11.9169C 1.33689 12.4791 1.98087 12.7599 2.7335 12.7599L 5.77121 12.7599C 5.85364 12.7599 5.91801 12.7377 5.96578 12.6947C 6.01296 12.6518 6.04485 12.5866 6.06073 12.5005C 6.07675 12.4139 6.08578 12.3356 6.08913 12.2663C 6.09204 12.1964 6.09087 12.1087 6.08403 12.0024C 6.07777 11.8959 6.075 11.8291 6.075 11.8028Z"/>
<path id="path1_fill" fill-rule="evenodd" d="M 11.0583 5.61218L 5.89471 0.189341C 5.77471 0.0633176 5.63243 0 5.46743 0C 5.30301 0 5.16087 0.0633176 5.04029 0.189341C 4.92015 0.315365 4.85985 0.4654 4.85985 0.638071L 4.85985 3.50862L 0.607573 3.50862C 0.443155 3.50862 0.301019 3.57194 0.180437 3.69812C 0.0602913 3.82475 0 3.97402 0 4.14669L 0 7.97496C 0 8.14764 0.0602913 8.29706 0.180437 8.42308C 0.301019 8.54972 0.443155 8.61304 0.607573 8.61304L 4.85985 8.61304L 4.85985 11.4837C 4.85985 11.6564 4.92015 11.8063 5.04029 11.9323C 5.16087 12.0585 5.30301 12.1218 5.46743 12.1218C 5.63243 12.1218 5.77471 12.0585 5.89471 11.9323L 11.0583 6.50948C 11.1789 6.38346 11.2386 6.23358 11.2386 6.06091C 11.2386 5.88824 11.1789 5.7382 11.0583 5.61218Z"/>
</defs>
</svg>
